<svg id="Group_4287" data-name="Group 4287" xmlns="http://www.w3.org/2000/svg" width="27.86" height="32.856" viewBox="0 0 27.86 32.856">
  <g id="Group_2260" data-name="Group 2260" transform="translate(8.461 0)">
    <path id="Path_8357" data-name="Path 8357" d="M407.442,266.85a.4.4,0,0,1-.4-.4V251.5a.4.4,0,0,1,.8,0v14.949A.4.4,0,0,1,407.442,266.85Z" transform="translate(-407.041 -251.1)" fill="#fff"/>
  </g>
  <g id="Group_2261" data-name="Group 2261" transform="translate(8.461 24.689)">
    <path id="Path_8358" data-name="Path 8358" d="M407.442,278.257a.4.4,0,0,1-.4-.4v-1.709a.4.4,0,0,1,.8,0v1.709A.4.4,0,0,1,407.442,278.257Z" transform="translate(-407.041 -275.747)" fill="#fff"/>
  </g>
  <g id="Group_2262" data-name="Group 2262" transform="translate(0 26.398)">
    <path id="Path_8359" data-name="Path 8359" d="M422.662,283.911h-21.4a.4.4,0,0,1-.372-.253L398.624,278a.4.4,0,0,1,.372-.55h27.059a.4.4,0,0,1,.344.607l-3.393,5.657A.4.4,0,0,1,422.662,283.911Zm-21.133-.8h20.907l2.912-4.855h-25.76Z" transform="translate(-398.595 -277.453)" fill="#fff"/>
  </g>
  <g id="Group_2263" data-name="Group 2263" transform="translate(3.653 0.848)">
    <path id="Path_8360" data-name="Path 8360" d="M409.856,278.3a.4.4,0,0,1-.262-.1,17.927,17.927,0,0,0-7.026-3.61.4.4,0,0,1-.2-.685c8.5-8.016,5.154-21.324,5.12-21.458a.4.4,0,0,1,.113-.393.4.4,0,0,1,.4-.088c.154.051,15.338,5.322,15.338,23.432a.4.4,0,0,1-.129.295.418.418,0,0,1-.3.105c-6.06-.484-12.823,2.436-12.89,2.466A.409.409,0,0,1,409.856,278.3Zm-6.41-4.329a18.915,18.915,0,0,1,6.479,3.465c1.234-.511,7.056-2.768,12.609-2.462-.123-8.919-4.075-14.469-7.4-17.566a23.787,23.787,0,0,0-6.709-4.413C408.991,255.913,410.5,266.739,403.446,273.969Z" transform="translate(-402.242 -251.947)" fill="#fff"/>
  </g>
</svg>
