<svg version="1.1" id="svg3769" xmlns="http://www.w3.org/2000/svg" xmlns:xlink="http://www.w3.org/1999/xlink" x="0" y="0" viewBox="0 0 3000 509" style="enable-background:new 0 0 3000 509" xml:space="preserve"><style>.st2{fill:#273b7d}.st3{fill:#499fdd}</style><g id="layer1" transform="matrix(1.25 0 0 -1.25 -736.625 36.07)"><g id="g3358"><defs><path id="SVGID_1_" d="M289.3-429.3h3000v509h-3000z"/></defs><clipPath id="SVGID_2_"><use xlink:href="#SVGID_1_" style="overflow:visible"/></clipPath><g id="g3360" style="clip-path:url(#SVGID_2_)"><defs><path id="SVGID_3_" d="M589.3-378.4h2400V28.9h-2400z"/></defs><clipPath id="SVGID_4_"><use xlink:href="#SVGID_3_" style="overflow:visible"/></clipPath><g id="g3366" style="clip-path:url(#SVGID_4_)"><path id="path3372" class="st2" d="M1530.5-15.7c0 20.2 16.3 36.6 36.4 36.6 20.2 0 36.5-16.3 36.5-36.6 0-20.2-16.4-36.6-36.5-36.6s-36.4 16.4-36.4 36.6"/><path id="path3374" class="st3" d="M2105.9-258.9c0 20.2 16.3 36.6 36.4 36.6 20.1 0 36.5-16.4 36.5-36.6 0-20.2-16.4-36.6-36.5-36.6s-36.4 16.4-36.4 36.6"/><path id="path3376" class="st2" d="M931.9-243.1c-31.4 0-53.2 24.9-53.2 60.6 0 35.6 21.8 60.6 53.2 60.6 31.6 0 53.7-24.9 53.7-60.6 0-36.2-21.6-60.6-53.7-60.6zm0 174.4c-66.4 0-114.7-47.9-114.7-113.8s48.2-113.8 114.7-113.8c66.7 0 115.1 47.9 115.1 113.8S998.6-68.7 931.9-68.7"/><path id="path3378" class="st2" d="M1459.8-188.2c-2.6 4.9-5.5 9-8.7 12.2l-2 2.1 2.1 2c3.1 3.2 6.2 7 9.2 11.4l58.6 87.2h-71.2l-44.1-68.2c-2.5-3.7-7.5-5.5-15.1-5.5h-10v129c0 25.8-16.1 29.3-33.4 29.3h-29.7l.1-304.3h63.1v91.3h5.9c7.2 0 12.1-.8 14.3-4.7l34.8-65.7c9.7-17.8 19.4-20.9 37.6-20.9h48.3l-36 59.5-23.8 45.3"/><path id="path3380" class="st2" d="M1766.1-68.2c-32.1 0-52.6-14.3-64-26.3l-3.8-3.9-1.4 5.3c-3.4 12.9-14.7 20-31.8 20h-28.3l.2-219.8h62.6v101.3c0 9.9 1.3 18.5 3.9 26.3 7 23.7 26.4 38.5 50.7 38.5 19.6 0 27.2-10.3 27.2-37v-95.7c0-22.8 10.5-33.4 33.3-33.4h29.8l-.1 139.8c0 55.5-27.1 84.9-78.3 84.9"/><path id="path3382" class="st2" d="M1567.7-73.2H1538l.2-169.9V-293h62.3v.1h.1l.1 186.3c0 22.5-10.8 33.4-33 33.4"/><path id="path3384" class="st2" d="M1178-243.1c-31.4 0-53.3 24.9-53.3 60.6 0 35.6 21.9 60.6 53.3 60.6 31.5 0 53.7-24.9 53.7-60.6 0-36.2-21.6-60.6-53.7-60.6zm0 174.4c-66.5 0-114.7-47.9-114.7-113.8s48.2-113.8 114.7-113.8c66.6 0 115.1 47.9 115.1 113.8S1244.6-68.7 1178-68.7"/></g></g></g><g id="g3386"><defs><path id="SVGID_5_" d="M289.3-429.3h3000v509h-3000z"/></defs><clipPath id="SVGID_6_"><use xlink:href="#SVGID_5_" style="overflow:visible"/></clipPath><g id="g3388" style="clip-path:url(#SVGID_6_)"><defs><path id="SVGID_7_" d="M289.4-427.7h2999.4V70.7H289.4z"/></defs><clipPath id="SVGID_8_"><use xlink:href="#SVGID_7_" style="overflow:visible"/></clipPath><g id="g3394" style="clip-path:url(#SVGID_8_)"><defs><path id="SVGID_9_" d="M589.3-378.4h2400V28.9h-2400z"/></defs><clipPath id="SVGID_10_"><use xlink:href="#SVGID_9_" style="overflow:visible"/></clipPath><g id="g3400" style="clip-path:url(#SVGID_10_)"><path id="path3406" class="st3" d="M2520.9-243.1c-31.4 0-53.3 24.9-53.3 60.6 0 35.6 21.9 60.6 53.3 60.6 31.5 0 53.7-24.9 53.7-60.6-.1-36.2-21.7-60.6-53.7-60.6zm0 174.4c-66.5 0-114.7-47.9-114.7-113.8s48.2-113.8 114.7-113.8c66.6 0 115.1 47.9 115.1 113.8s-48.5 113.8-115.1 113.8"/><path id="path3408" class="st2" d="M1976.5-233.4c-34.2 0-46.4 29.9-46.4 57.9 0 12.3 3.1 52.5 43.1 52.5 19.9 0 46.4-5.7 46.4-54.6 0-46.2-23.4-55.8-43.1-55.8zm75.7 160.8c-11.9 0-21-4.7-25.6-13.4l-1.7-3.4-2.9 2.5c-10.1 8.8-28.2 19.1-57.7 19.1-58.6 0-98-44-98-109.5 0-65.4 40.8-111.1 99.2-111.1 19.9 0 35.7 4.7 48.2 14.1l4.8 3.6v-6.1c0-29.4-19-45.5-53.4-45.5-16.7 0-31.9 4.1-42.1 7.8-13.3 4-21.1.7-26.5-12.6l-5-12.3-7-18 4.4-2.3c22-11.7 50.7-18.7 76.6-18.7 53.4 0 115.6 27.3 115.6 104.2l.2 201.6h-29.1"/></g></g></g></g><g id="g3410"><defs><path id="SVGID_11_" d="M289.3-429.3h3000v509h-3000z"/></defs><clipPath id="SVGID_12_"><use xlink:href="#SVGID_11_" style="overflow:visible"/></clipPath><g id="g3412" style="clip-path:url(#SVGID_12_)"><defs><path id="SVGID_13_" d="M589.3-378.4h2400V28.9h-2400z"/></defs><clipPath id="SVGID_14_"><use xlink:href="#SVGID_13_" style="overflow:visible"/></clipPath><g id="g3418" style="clip-path:url(#SVGID_14_)"><path id="path3424" class="st2" d="m698.6-240.6-51 .1v61c0 13 5.1 19.8 16.2 21.4h34.8c24.8 0 40.9-15.7 40.9-41 0-26.1-15.6-41.5-40.9-41.5zm-51 164.5v16c0 14 5.9 20.7 19 21.6h26.1c22.4 0 35.8-13.4 35.8-35.8 0-17.1-9.2-37-35-37h-45.9v35.2zM763.8-137l-9.2 5.2 8 6.9c9.4 8 25 26.1 25 57.4 0 47.8-37.1 78.7-94.5 78.7h-73c-17-.6-30.6-14.5-30.8-31.6v-271.5H694.4c63.8 0 105 34.7 105 88.6 0 29-13.3 53.7-35.6 66.3"/><path id="path3426" class="st3" d="M2915.8-68.9c-26 0-51.1-12.2-67.3-32.6l-4.5-5.8-3.6 6.4c-11.6 21.2-31.6 31.9-59.3 31.9-29.1 0-48.6-16.2-57.7-25.9l-5.9-6.4-2.3 8.5c-3.3 12.2-14.1 18.9-30.6 18.9h-26.3l-.3-218.9h59.8v96.6c0 8.5 1 16.8 3.2 25.6 5.7 23.4 21.4 48.5 47.8 46 16.3-1.6 24.2-14.1 24.2-38.4v-129.8h60.3v96.6c0 10.6 1 18.5 3.4 26.4 4.9 22.3 21.2 45.1 46.7 45.1 18.4 0 25.2-10.4 25.2-38.5V-261c0-22.1 9.9-32 32-32h28.2l.1 139.8c-.1 55.9-24.7 84.3-73.1 84.3"/><path id="path3428" class="st3" d="M2371.5-216.9c-.2-.2-25.9-27.4-59.8-27.4-30.9 0-62.1 18.9-62.1 61.2 0 36.5 24.2 62 58.8 62 11.2 0 24-4 26-10.8l.3-1.1c4.6-15.4 18.6-16.2 21.3-16.2h32.8v28.7c0 37.8-48.1 51.5-80.4 51.5-69.2 0-119.4-48.2-119.4-114.5s49.6-114.4 118.1-114.4c59.4 0 91.7 39 92 39.4l1.7 2.1-26 43.1-3.3-3.6"/></g></g></g></g></svg>