<svg xmlns="http://www.w3.org/2000/svg" width="47.849" height="23.12" viewBox="0 0 47.849 23.12">
  <path id="Path_10363" data-name="Path 10363" d="M114.556,446.2c-1.79-.447-5.66-1.138-6.683-1.319-1.168-1.146-7.459-7.05-13.022-7.05-.954,0-2.633.066-4.256.13-1.524.06-2.964.116-3.721.116-4.714,0-7.8,3.71-9.285,5.494-.2.238-.417.5-.553.645-1.121.015-3.7.117-3.816.121l-.479.019-.2.434a13.384,13.384,0,0,0-1.057,5.246c0,2.905,0,7.3,3.938,7.3h2.216a4.437,4.437,0,0,0,8.75-.163v.163h16.531a4.438,4.438,0,0,0,8.73-.036c.781-.036,2.178-.087,3.824-.087,2.932,0,3.166-1.314,3.521-3.3.083-.468.178-1,.318-1.6l.02-.088v-.09A6.608,6.608,0,0,0,114.556,446.2ZM82,459.366a2.86,2.86,0,1,1,2.86-2.861A2.864,2.864,0,0,1,82,459.366Zm25.281,0a2.86,2.86,0,1,1,2.86-2.861A2.864,2.864,0,0,1,107.277,459.366Zm10.156-5.744c-.337,1.888-.357,2-1.964,2-1.64,0-3.019.048-3.826.085a4.437,4.437,0,0,0-8.738.038H86.383v.1a4.436,4.436,0,0,0-8.759-.1H75.417c-2.183,0-2.357-2.476-2.357-5.714a12.373,12.373,0,0,1,.733-4.138c.916-.034,2.807-.1,3.483-.1.52,0,.837-.38,1.529-1.213,1.33-1.6,4.1-4.923,8.069-4.923.787,0,2.242-.057,3.783-.117,1.608-.063,3.271-.128,4.194-.128,3.811,0,8.263,3.372,10.549,5.353H94.933v-2.83H93.352v2.83H87.917c-3.015,0-3.531-2.123-3.579-2.359l-1.555.286c.232,1.264,1.6,3.654,5.134,3.654H107.1l.006.006.25.043c.048.008,4.843.845,6.816,1.338a5.086,5.086,0,0,1,3.573,4.3C117.608,452.639,117.515,453.16,117.433,453.622Z" transform="translate(-71.479 -437.828)" fill="#fff"/>
</svg>
