<svg id="Group_4297" data-name="Group 4297" xmlns="http://www.w3.org/2000/svg" width="30.41" height="36.766" viewBox="0 0 30.41 36.766">
  <g id="Group_2257" data-name="Group 2257" transform="translate(0 0)">
    <g id="Group_2252" data-name="Group 2252" transform="translate(18.612)">
      <g id="Group_2251" data-name="Group 2251">
        <path id="Path_8352" data-name="Path 8352" d="M252.683,206.647a5.9,5.9,0,1,1,5.9-5.9A5.9,5.9,0,0,1,252.683,206.647Zm0-10.9a5,5,0,1,0,5.008,5A5,5,0,0,0,252.683,195.747Z" transform="translate(-246.789 -194.85)" fill="#fff"/>
      </g>
    </g>
    <g id="Group_2256" data-name="Group 2256" transform="translate(0 5.45)">
      <g id="Group_2253" data-name="Group 2253" transform="translate(12.034 16.763)">
        <path id="Path_8353" data-name="Path 8353" d="M241.369,229.22a.449.449,0,0,1-.448-.448V215.115a.448.448,0,1,1,.9,0v13.656A.448.448,0,0,1,241.369,229.22Z" transform="translate(-240.921 -214.667)" fill="#fff"/>
      </g>
      <g id="Group_2254" data-name="Group 2254" transform="translate(9.622 30.42)">
        <path id="Path_8354" data-name="Path 8354" d="M244.038,227.747h-4.821a.448.448,0,0,1,0-.9h4.821a.448.448,0,0,1,0,.9Z" transform="translate(-238.769 -226.85)" fill="#fff"/>
      </g>
      <g id="Group_2255" data-name="Group 2255">
        <path id="Path_8355" data-name="Path 8355" d="M242.668,217.372a.449.449,0,0,1-.364-.186L230.27,200.422a.448.448,0,0,1,.364-.71H254.7a.448.448,0,0,1,.364.71l-12.028,16.765A.453.453,0,0,1,242.668,217.372Zm-11.161-16.763,11.161,15.546,11.156-15.546Z" transform="translate(-230.186 -199.712)" fill="#fff"/>
      </g>
    </g>
  </g>
  <g id="Group_2258" data-name="Group 2258" transform="translate(4.8 12.374)">
    <path id="Path_8356" data-name="Path 8356" d="M249.209,206.786H234.916a.448.448,0,0,1,0-.9h14.293a.448.448,0,0,1,0,.9Z" transform="translate(-234.468 -205.889)" fill="#fff"/>
  </g>
</svg>
