<svg id="Group_4290" data-name="Group 4290" xmlns="http://www.w3.org/2000/svg" width="20.945" height="24.731" viewBox="0 0 20.945 24.731">
  <g id="Group_2265" data-name="Group 2265" transform="translate(4.314 0)">
    <path id="Path_8361" data-name="Path 8361" d="M522.991,157.165a.3.3,0,0,1-.252-.136c-.241-.365-5.907-8.985-5.907-12.271a6.159,6.159,0,0,1,12.318,0c0,3.287-5.667,11.907-5.907,12.271A.3.3,0,0,1,522.991,157.165Zm0-17.962a5.561,5.561,0,0,0-5.555,5.555c0,2.73,4.439,9.814,5.555,11.551,1.115-1.736,5.555-8.82,5.555-11.551A5.561,5.561,0,0,0,522.991,139.2Z" transform="translate(-516.832 -138.6)" fill="#fff"/>
  </g>
  <g id="Group_2266" data-name="Group 2266" transform="translate(0 11.632)">
    <path id="Path_8362" data-name="Path 8362" d="M511.413,167.126a.3.3,0,0,1-.3-.359l2.174-11.284a.3.3,0,0,1,.183-.222l3-1.212a.306.306,0,0,1,.178-.015l1.431.314a.3.3,0,0,1,.2.154c1.27,2.4,2.727,4.708,3.3,5.6.575-.894,2.03-3.206,3.3-5.6a.3.3,0,0,1,.2-.153l1.433-.316a.306.306,0,0,1,.178.015l3,1.212a.3.3,0,0,1,.182.222l2.174,11.284a.3.3,0,0,1-.441.322l-5.027-2.764-4.853,2.653a.3.3,0,0,1-.289,0l-4.855-2.653-5.028,2.764A.3.3,0,0,1,511.413,167.126Zm5.172-3.446a.3.3,0,0,1,.144.036l4.857,2.653,4.854-2.653a.3.3,0,0,1,.289,0l4.608,2.533-2.02-10.493-2.759-1.115-1.206.265c-1.616,3.03-3.5,5.887-3.516,5.916a.313.313,0,0,1-.5,0c-.019-.029-1.9-2.886-3.517-5.917l-1.2-.265-2.759,1.115-2.021,10.493,4.609-2.533A.3.3,0,0,1,516.584,163.681Z" transform="translate(-511.111 -154.027)" fill="#fff"/>
  </g>
  <g id="Group_2267" data-name="Group 2267" transform="translate(6.046 1.73)">
    <path id="Path_8363" data-name="Path 8363" d="M523.556,149.751a4.429,4.429,0,1,1,4.429-4.429A4.433,4.433,0,0,1,523.556,149.751Zm0-8.254a3.825,3.825,0,1,0,3.825,3.825A3.828,3.828,0,0,0,523.556,141.5Z" transform="translate(-519.129 -140.894)" fill="#fff"/>
  </g>
</svg>
