<svg id="Group_4293" data-name="Group 4293" xmlns="http://www.w3.org/2000/svg" width="34.505" height="38.749" viewBox="0 0 34.505 38.749">
  <g id="Group_2269" data-name="Group 2269" transform="translate(0 17.145)">
    <path id="Path_8364" data-name="Path 8364" d="M476.9,225.546c-4.039,0-6.878-2.98-6.963-7.273a2.4,2.4,0,0,0-.924,0c-.086,4.293-2.925,7.273-6.964,7.273a7.7,7.7,0,0,1-7.9-7.471v-8.239a.472.472,0,0,1,.472-.472h29.7a.473.473,0,0,1,.472.472v8.239A7.7,7.7,0,0,1,476.9,225.546Zm-7.425-8.262c.893,0,1.406.288,1.406.79,0,3.249,1.861,6.527,6.019,6.527a6.758,6.758,0,0,0,6.952-6.527v-7.766H455.092v7.766a6.758,6.758,0,0,0,6.952,6.527c4.16,0,6.02-3.278,6.02-6.527C468.065,217.572,468.576,217.284,469.471,217.284Z" transform="translate(-454.147 -209.363)" fill="#fff"/>
  </g>
  <g id="Group_2270" data-name="Group 2270" transform="translate(12.559 33.107)">
    <path id="Path_8365" data-name="Path 8365" d="M467.6,228.516a2.821,2.821,0,1,1,2.822-2.822A2.825,2.825,0,0,1,467.6,228.516Zm0-4.7a1.876,1.876,0,1,0,1.876,1.875A1.877,1.877,0,0,0,467.6,223.819Z" transform="translate(-464.778 -222.874)" fill="#fff"/>
  </g>
  <g id="Group_2271" data-name="Group 2271" transform="translate(17.258 0)">
    <path id="Path_8366" data-name="Path 8366" d="M485.528,231.25h-16.3a.473.473,0,1,1,0-.945h15.828V195.323a.473.473,0,0,1,.946,0v35.455A.473.473,0,0,1,485.528,231.25Z" transform="translate(-468.755 -194.85)" fill="#fff"/>
  </g>
</svg>
